# 3ds Max Wavefront OBJ Exporter v0.97b - (c)2007 guruware
# File Created: 02.05.2012 07:30:51

mtllib TIle.mtl

#
# object Tile
#

v  -0.700000 -0.700000 -0.500000
v  0.700000 -0.700000 -0.500000
v  0.700000 -0.700000 0.500000
v  -0.700000 -0.700000 0.500000
v  0.700000 0.700000 -0.500000
v  0.700000 0.700000 0.500000
v  -0.700000 0.700000 -0.500000
v  -0.700000 0.700000 0.500000
v  -0.585494 0.585494 -0.500000
v  -0.585494 -0.585494 -0.500000
v  0.585494 0.585494 -0.500000
v  0.585494 -0.585494 -0.500000
v  0.669673 -0.669673 0.500000
v  -0.669673 -0.669673 0.500000
v  0.669673 0.669673 0.500000
v  -0.669673 0.669673 0.500000
v  0.585494 0.585494 0.421263
v  -0.585494 0.585494 0.421263
v  -0.585494 -0.585494 0.421263
v  0.585494 -0.585494 0.421263
v  0.619862 -0.619862 0.482996
v  -0.619862 -0.619862 0.482996
v  0.619862 0.619862 0.482996
v  -0.619862 0.619862 0.482996
# 24 vertices

vn 0.000000 -1.000000 0.000000
vn 1.000000 0.000000 0.000000
vn 0.000000 1.000000 0.000000
vn -1.000000 0.000000 0.000000
vn 0.000000 0.000000 -1.000000
vn 0.000000 0.000000 1.000000
vn 0.000000 0.323073 0.946374
vn -0.323073 0.000000 0.946374
vn 0.000000 -0.323073 0.946374
vn 0.323073 0.000000 0.946374
vn 0.000000 0.873722 0.486425
vn -0.873722 0.000000 0.486425
vn 0.000000 -0.873722 0.486425
vn 0.873722 0.000000 0.486425
# 14 vertex normals

vt 0.291667 0.500000 0.000000
vt 0.583333 0.500000 0.000000
vt 0.583333 0.708333 0.000000
vt 0.291667 0.708333 0.000000
vt 0.875000 0.500000 0.000000
vt 0.875000 0.708333 0.000000
vt 0.583333 0.208333 0.000000
vt 0.291667 0.208333 0.000000
vt 0.291667 0.000000 0.000000
vt 0.583333 0.000000 0.000000
vt 0.000000 0.500000 0.000000
vt 0.000000 0.708333 0.000000
vt 0.315522 0.232189 0.000000
vt 0.315522 0.476145 0.000000
vt 0.559478 0.232189 0.000000
vt 0.559478 0.476145 0.000000
vt 0.577015 0.714652 0.000000
vt 0.297985 0.714652 0.000000
vt 0.583333 1.000000 0.000000
vt 0.577015 0.993682 0.000000
vt 0.291667 1.000000 0.000000
vt 0.297985 0.993682 0.000000
vt 0.272453 0.791685 0.000000
vt 0.272453 0.983614 0.000000
vt 0.028497 0.983614 0.000000
vt 0.028497 0.791685 0.000000
vt 0.790383 0.976145 0.000000
vt 0.598454 0.976145 0.000000
vt 0.598454 0.732189 0.000000
vt 0.790383 0.732189 0.000000
vt 0.597594 0.246052 0.000000
vt 0.789524 0.246052 0.000000
vt 0.789524 0.490008 0.000000
vt 0.597594 0.490008 0.000000
vt 0.025888 0.475108 0.000000
vt 0.025888 0.283178 0.000000
vt 0.269844 0.283178 0.000000
vt 0.269844 0.475108 0.000000
vt 0.566344 0.725323 0.000000
vt 0.308656 0.725323 0.000000
vt 0.566344 0.983011 0.000000
vt 0.308656 0.983011 0.000000
vt 0.555404 0.736263 0.000000
vt 0.319596 0.736263 0.000000
vt 0.555404 0.972071 0.000000
vt 0.319596 0.972071 0.000000
# 46 texture coords

g Tile
usemtl wire_214229166
s 8
f 1/1/1 2/2/1 3/3/1 4/4/1 
s 16
f 2/2/2 5/5/2 6/6/2 3/3/2 
s 32
f 5/7/3 7/8/3 8/9/3 6/10/3 
s 64
f 7/11/4 1/1/4 4/4/4 8/12/4 
s off
f 1/1/5 7/8/5 9/13/5 10/14/5 
f 7/8/5 5/7/5 11/15/5 9/13/5 
f 5/7/5 2/2/5 12/16/5 11/15/5 
f 2/2/5 1/1/5 10/14/5 12/16/5 
f 4/4/6 3/3/6 13/17/6 14/18/6 
f 3/3/6 6/19/6 15/20/6 13/17/6 
f 6/19/6 8/21/6 16/22/6 15/20/6 
f 8/21/6 4/4/6 14/18/6 16/22/6 
f 11/23/1 17/24/1 18/25/1 9/26/1 
f 9/27/2 18/28/2 19/29/2 10/30/2 
f 12/31/4 20/32/4 17/33/4 11/34/4 
f 10/35/3 19/36/3 20/37/3 12/38/3 
f 13/17/7 21/39/7 22/40/7 14/18/7 
f 15/20/8 23/41/8 21/39/8 13/17/8 
f 16/22/9 24/42/9 23/41/9 15/20/9 
f 14/18/10 22/40/10 24/42/10 16/22/10 
f 21/39/11 20/43/11 19/44/11 22/40/11 
f 23/41/12 17/45/12 20/43/12 21/39/12 
f 24/42/13 18/46/13 17/45/13 23/41/13 
f 22/40/14 19/44/14 18/46/14 24/42/14 
# 24 polygons

